name analog
datacolumns 19
datarows 36
range 0.5065000000000001 0.524
endheader
time	ground_force_vx	ground_force_vy	ground_force_vz	ground_force_px	ground_force_py	ground_force_pz	l_ground_force_vx	l_ground_force_vy	l_ground_force_vz	l_ground_force_px	l_ground_force_py	l_ground_force_pz	ground_torque_x	ground_torque_y	ground_torque_z	l_ground_torque_x	l_ground_torque_y	l_ground_torque_z
0.5065000000000001	-0.0	-0.0	-0.0	1.52001690864563	41.00685501098633	-384.5925598144531	-4.076560497283936	-17.75265884399414	-412.3074035644531	-0.0	-0.0	-0.0	-0.0	-0.0	-0.0	143594.015625	1499.996337890625	-3657.46826171875
0.507	-0.0	-0.0	-0.0	1.9675699472427368	42.07283782958984	-388.1773681640625	-5.133254051208496	-17.41923713684082	-402.5796813964844	-0.0	-0.0	-0.0	-0.0	-0.0	-0.0	140475.234375	1623.05517578125	-3924.395751953125
0.5075000000000001	-0.0	-0.0	-0.0	2.405487298965454	43.23623275756836	-393.0639953613281	-5.141330718994141	-17.9273624420166	-394.5260009765625	-0.0	-0.0	-0.0	-0.0	-0.0	-0.0	138172.640625	2025.1832275390625	-4072.8349609375
0.508	-0.0	-0.0	-0.0	2.6747772693634038	44.90789413452149	-394.1853332519531	-5.498181343078613	-17.842859268188477	-387.5360107421875	-0.0	-0.0	-0.0	-0.0	-0.0	-0.0	134685.71875	1777.2144775390625	-4133.00634765625
0.5085000000000001	-0.0	-0.0	-0.0	2.3238685131073	45.36152267456055	-398.7517700195313	-5.58514928817749	-17.75627326965332	-380.2047119140625	-0.0	-0.0	-0.0	-0.0	-0.0	-0.0	132750.3125	2286.761962890625	-4191.11181640625
0.509	-0.0	-0.0	-0.0	1.9668837785720823	45.989871978759766	-402.288818359375	-5.2427754402160645	-17.754419326782227	-373.927490234375	-0.0	-0.0	-0.0	-0.0	-0.0	-0.0	130370.6484375	1959.7650146484373	-4133.31298828125
0.5095000000000001	-0.0	-0.0	-0.0	2.7614917755126958	46.786746978759766	-405.097412109375	-5.327733039855957	-17.924238204956055	-366.9717102050781	-0.0	-0.0	-0.0	-0.0	-0.0	-0.0	128327.578125	2240.7314453125	-4190.97119140625
0.51	-0.0	-0.0	-0.0	2.314335584640503	47.325679779052734	-408.2607421875	-5.590415000915527	-17.566246032714844	-362.7749938964844	-0.0	-0.0	-0.0	-0.0	-0.0	-0.0	126262.1796875	1706.99169921875	-4249.84814453125
0.5105000000000001	-0.0	-0.0	-0.0	2.3207099437713623	47.68724060058594	-409.3306884765625	-5.233936309814453	-16.697542190551758	-356.14715576171875	-0.0	-0.0	-0.0	-0.0	-0.0	-0.0	124429.4453125	1608.55078125	-4071.93701171875
0.511	-0.0	-0.0	-0.0	1.963794946670532	48.21373748779297	-409.7025451660156	-4.790382385253906	-16.784137725830078	-354.0456848144531	-0.0	-0.0	-0.0	-0.0	-0.0	-0.0	123050.9375	1625.3973388671875	-4069.10986328125
0.5115000000000001	-0.0	-0.0	-0.0	1.7853262424468994	47.87083435058594	-412.1610107421875	-4.083631992340088	-16.60740089416504	-348.1099548339844	-0.0	-0.0	-0.0	-0.0	-0.0	-0.0	121517.3515625	1082.3035888671875	-3717.58203125
0.512	-0.0	-0.0	-0.0	1.5155227184295654	48.48799514770508	-411.479736328125	-3.635733842849731	-16.51755714416504	-345.28326416015625	-0.0	-0.0	-0.0	-0.0	-0.0	-0.0	120381.6953125	817.416748046875	-3537.743896484375
0.5125	-0.0	-0.0	-0.0	1.512646198272705	48.57312774658203	-414.62933349609375	-2.5686051845550537	-15.901893615722656	-341.46502685546875	-0.0	-0.0	-0.0	-0.0	-0.0	-0.0	118962.7734375	349.2766418457031	-3267.12353515625
0.513	-0.0	-0.0	-0.0	0.4488593339920044	49.01891708374024	-416.0533752441406	-1.6816391944885254	-16.24734115600586	-336.2533264160156	-0.0	-0.0	-0.0	-0.0	-0.0	-0.0	117723.8359375	-182.09591674804688	-2883.16552734375
0.5135	-0.0	-0.0	-0.0	0.0	48.30953979492188	-417.8050537109375	-0.1810699701309204	-15.54824924468994	-333.09063720703125	-0.0	-0.0	-0.0	-0.0	-0.0	-0.0	116755.9765625	-741.4135131835938	-2407.27197265625
0.514	-0.0	-0.0	-0.0	-0.4436081349849701	48.49100875854492	-418.5246887207031	0.7995655536651611	-15.625958442687988	-330.9957275390625	-0.0	-0.0	-0.0	-0.0	-0.0	-0.0	115766.90625	-1617.6475830078125	-2136.085205078125
0.5145	-0.0	-0.0	-0.0	-0.6267350912094116	48.394798278808594	-420.63134765625	1.9516372680664065	-14.835837364196776	-328.91827392578125	-0.0	-0.0	-0.0	-0.0	-0.0	-0.0	115065.921875	-1959.4569091796875	-1720.671875
0.515	-0.0	-0.0	-0.0	-1.4253252744674685	48.48897933959961	-421.34368896484375	3.1977298259735107	-14.136624336242676	-328.5394592285156	-0.0	-0.0	-0.0	-0.0	-0.0	-0.0	115354.7421875	-2536.070556640625	-1189.262939453125
0.5155	-0.0	-0.0	-0.0	-1.6962417364120483	48.83973693847656	-422.4056701660156	4.342925548553467	-13.95385456085205	-329.24615478515625	-0.0	-0.0	-0.0	-0.0	-0.0	-0.0	115279.9921875	-2992.042724609375	-921.345947265625
0.516	-0.0	-0.0	-0.0	-2.318899631500244	48.39208221435547	-423.4695739746094	4.526107311248779	-13.423972129821776	-329.6064453125	-0.0	-0.0	-0.0	-0.0	-0.0	-0.0	115713.1328125	-3273.2919921875	-832.02587890625
0.5165	-0.0	-0.0	-0.0	-2.676815986633301	47.86203002929688	-424.5361633300781	4.61809778213501	-12.715765953063965	-332.0297241210937	-0.0	-0.0	-0.0	-0.0	-0.0	-0.0	116141.7578125	-3499.108642578125	-889.580322265625
0.517	-0.0	-0.0	-0.0	-2.946211576461792	47.2386589050293	-425.9457702636719	4.875858306884766	-12.365840911865234	-333.7889404296875	-0.0	-0.0	-0.0	-0.0	-0.0	-0.0	116718.8671875	-3719.25	-860.47119140625
0.5175	-0.0	-0.0	-0.0	-3.924882411956787	47.14960479736328	-427.7084655761719	4.348300933837891	-11.92342758178711	-333.7889404296875	-0.0	-0.0	-0.0	-0.0	-0.0	-0.0	116888.84375	-3981.450439453125	-978.8493041992188
0.518	-0.0	-0.0	-0.0	-4.013833045959473	47.235595703125	-429.123779296875	4.346828460693359	-12.008380889892578	-333.4371643066406	-0.0	-0.0	-0.0	-0.0	-0.0	-0.0	117553.46875	-3692.378173828125	-1273.7025146484375
0.5185	-0.0	-0.0	-0.0	-5.0833659172058105	46.435585021972656	-432.6519165039063	3.9013876914978023	-11.744905471801758	-334.14801025390625	-0.0	-0.0	-0.0	-0.0	-0.0	-0.0	117539.3984375	-3829.211669921875	-1276.182861328125
0.519	-0.0	-0.0	-0.0	-5.351434230804443	45.90235900878906	-433.0041198730469	3.0161666870117188	-11.926752090454102	-334.4872436523437	-0.0	-0.0	-0.0	-0.0	-0.0	-0.0	117287.703125	-3819.5849609375	-1543.7864990234375
0.5195	-0.0	-0.0	-0.0	-5.442537784576416	45.54591751098633	-435.4719848632813	2.7475500106811523	-11.836094856262209	-333.4456787109375	-0.0	-0.0	-0.0	-0.0	-0.0	-0.0	117081.078125	-3662.21923828125	-1722.06494140625
0.52	-0.0	-0.0	-0.0	-5.977195739746094	45.456504821777344	-439.0008850097656	1.686403751373291	-11.925217628479004	-333.78717041015625	-0.0	-0.0	-0.0	-0.0	-0.0	-0.0	116691.890625	-3544.105224609375	-1960.1070556640625
0.5205	-0.0	-0.0	-0.0	-6.24469804763794	45.0108757019043	-439.3557739257813	1.2423279285430908	-12.366162300109863	-333.084716796875	-0.0	-0.0	-0.0	-0.0	-0.0	-0.0	116648.484375	-3569.723388671875	-2256.22021484375
0.521	-0.0	-0.0	-0.0	-6.691022872924805	45.01085662841797	-438.6498107910156	0.9748311638832092	-12.278352737426758	-331.3436279296875	-0.0	-0.0	-0.0	-0.0	-0.0	-0.0	116378.359375	-3410.224609375	-2404.992431640625
0.5215	-0.0	-0.0	-0.0	-7.315261840820312	44.29842758178711	-442.1780395507813	0.2666457593441009	-13.424640655517578	-333.09063720703125	-0.0	-0.0	-0.0	-0.0	-0.0	-0.0	116047.3125	-3507.32861328125	-2346.76513671875
0.522	-0.0	-0.0	-0.0	-7.939249038696289	44.3880729675293	-441.4736328125	0.3548431396484375	-14.129899978637695	-331.3441467285156	-0.0	-0.0	-0.0	-0.0	-0.0	-0.0	116216.1796875	-3735.584228515625	-2524.714111328125
0.5225	-0.0	-0.0	-0.0	-7.851994037628174	44.38819885253906	-442.88763427734375	0.7095366716384888	-14.042999267578123	-331.6922607421875	-0.0	-0.0	-0.0	-0.0	-0.0	-0.0	116080.546875	-3948.37548828125	-2702.139892578125
0.523	-0.0	-0.0	-0.0	-8.028945922851562	44.296119689941406	-442.8909912109375	0.6211298108100891	-14.572771072387695	-330.99664306640625	-0.0	-0.0	-0.0	-0.0	-0.0	-0.0	116108.9453125	-3895.36328125	-2494.935791015625
0.5235	-0.0	-0.0	-0.0	-8.472599029541016	44.38728332519531	-442.5372009277344	0.9757489562034608	-14.6613130569458	-330.9957275390625	-0.0	-0.0	-0.0	-0.0	-0.0	-0.0	116312.015625	-3992.166015625	-2405.7998046875
0.524	-0.0	-0.0	-0.0	-8.740677833557129	44.38499069213867	-443.9394836425781	0.9758186340332032	-14.3082914352417	-330.2977905273437	-0.0	-0.0	-0.0	-0.0	-0.0	-0.0	116358.0	-4108.75732421875	-2376.00341796875
